<svg width="29" height="29" fill="none" xmlns="http://www.w3.org/2000/svg"><path d="M14.15 26.042c-6.478 0-11.729-5.251-11.729-11.73 0-6.477 5.251-11.728 11.73-11.728 6.477 0 11.728 5.251 11.728 11.729-.007 6.474-5.254 11.722-11.729 11.729zm-5.011-8.46c-.152 0-.302.018-.45.054l-.176.048-.696 1.193a.965.965 0 001.6 1.074l.073-.11.927-1.607a1.625 1.625 0 00-1.29-.652h.012zm6.432-7.187a2.28 2.28 0 00-.689 1.29 2.815 2.815 0 00.352 1.982l3.566 6.176a.97.97 0 001.256.378.965.965 0 00.469-1.225l-.057-.117-.939-1.632h1.396a.966.966 0 00.117-1.922l-.117-.007h-2.51l-2.573-4.457-.269-.47-.002.004zM7.418 15.31a.958.958 0 00-.956.963c0 .485.361.896.843.958l.118.006h8.773a1.36 1.36 0 00-.02-1.252 1.213 1.213 0 00-.93-.67l-.142-.006h-2.992l4.138-7.166a.971.971 0 00-.177-1.186.967.967 0 00-1.424.113l-.073.108-.426.744-.42-.744a.97.97 0 00-1.258-.377.968.968 0 00-.47 1.225l.058.117.974 1.713-3.15 5.454H7.418z" fill="#fff"/></svg>