<svg width="132" height="38" fill="none" xmlns="http://www.w3.org/2000/svg"><path d="M55.496 14.2h-4.322V36h-4.939V14.2h-3.562V9.69h3.562V.855h4.94v8.833h4.321V14.2zm28.892 8.312c0 .823-.047 1.646-.142 2.47h-21.8c.507 2.09 1.536 3.815 3.088 5.176 1.583 1.33 3.435 1.995 5.556 1.995a8.551 8.551 0 004.37-1.187c1.393-.792 2.438-1.868 3.134-3.23h4.94c-1.014 2.691-2.66 4.86-4.94 6.507-2.28 1.614-4.844 2.422-7.694 2.422-3.704 0-6.87-1.377-9.498-4.132-2.596-2.755-3.895-6-3.895-9.736 0-3.831 1.299-7.092 3.895-9.783 2.596-2.692 5.794-4.037 9.593-4.037 3.705 0 6.855 1.33 9.451 3.99 2.628 2.659 3.942 5.84 3.942 9.545zm-4.94-1.33c-.126-2.153-1.044-3.973-2.754-5.461-1.678-1.488-3.593-2.232-5.746-2.232-2.153 0-4.085.744-5.794 2.232-1.678 1.488-2.58 3.308-2.707 5.461h17.002zm21.259-7.123c-1.235 0-2.422.316-3.562.95-1.932.98-2.897 3.181-2.897 6.6V36h-4.94V9.69h4.607v2.374h.095c1.393-1.963 3.625-2.992 6.697-3.087v5.082zm28.994 8.453c0 .823-.048 1.646-.143 2.47h-21.799c.507 2.09 1.536 3.815 3.087 5.176 1.583 1.33 3.436 1.995 5.557 1.995a8.55 8.55 0 004.369-1.187c1.393-.792 2.438-1.868 3.135-3.23h4.939c-1.013 2.691-2.66 4.86-4.939 6.507-2.28 1.614-4.844 2.422-7.694 2.422-3.704 0-6.871-1.377-9.499-4.132-2.596-2.755-3.894-6-3.894-9.736 0-3.831 1.298-7.092 3.894-9.783 2.597-2.692 5.795-4.037 9.594-4.037 3.704 0 6.855 1.33 9.451 3.99 2.628 2.659 3.942 5.84 3.942 9.545zm-4.939-1.33c-.127-2.153-1.045-3.973-2.755-5.461-1.678-1.488-3.594-2.232-5.747-2.232s-4.084.744-5.794 2.232c-1.678 1.488-2.58 3.308-2.707 5.461h17.003z" fill="#000"/><path d="M36.035 11.947l-.092-.225-.171.172-3.406 3.424-.065.065.023.09c.285 1.085.428 2.206.428 3.364 0 7.515-6.109 13.624-13.624 13.624-7.534 0-13.642-6.109-13.642-13.624 0-1.176.142-2.316.427-3.4l.023-.09-.065-.065-3.405-3.424-.172-.172-.092.225A18.305 18.305 0 00.84 18.837c0 10.072 8.199 18.27 18.27 18.27 10.072 0 18.271-8.198 18.271-18.27a18.11 18.11 0 00-1.345-6.89zm-5.599-.678l.11.162.138-.138 3.1-3.1.097-.098-.082-.111C30.472 3.494 25.128.567 19.109.567 13.11.567 7.766 3.476 4.44 7.966l-.083.111.098.098 3.1 3.1.138.138.109-.162a13.638 13.638 0 019.171-5.878c.694-.106 1.407-.16 2.138-.16.73 0 1.443.054 2.137.16 3.828.606 7.123 2.814 9.19 5.895z" fill="#000" stroke="#000" stroke-width=".322"/><path d="M21.278 19.427h.16V2.33h-4.646v17.097h4.486z" fill="#000" stroke="#000" stroke-width=".322"/></svg>