<svg width="32" height="29" fill="none" xmlns="http://www.w3.org/2000/svg"><path d="M17.646 14.023l3.806-3.374L9.157 4.524c-.815-.39-1.578-.445-2.247-.018l10.736 9.517zm4.455 3.95l3.957-1.972c.773-.384 1.196-.927 1.196-1.53 0-.6-.423-1.145-1.194-1.528l-3.583-1.784-4.033 3.574 3.657 3.24zM6.248 5.336a2.17 2.17 0 00-.129.751v16.78c0 .434.108.808.304 1.106l10.423-9.24L6.248 5.335zM17.646 15.44L7.28 24.628c.199.067.412.103.638.103.401 0 .82-.105 1.246-.315l11.914-5.93-3.432-3.047z" fill="#fff"/></svg>