<svg width="63" height="63" fill="none" xmlns="http://www.w3.org/2000/svg"><path d="M59.83 19.84l-.154-.378-.288.29L53.67 25.5l-.11.11.04.15a22.17 22.17 0 01.717 5.65c0 12.62-10.257 22.877-22.877 22.877-12.65 0-22.908-10.258-22.908-22.877 0-1.976.24-3.889.718-5.711l.039-.15-.11-.11-5.718-5.748-.288-.29-.154.378a30.738 30.738 0 00-2.29 11.63c0 16.913 13.768 30.68 30.68 30.68 16.913 0 30.68-13.767 30.68-30.68 0-4.09-.793-7.997-2.259-11.57zm-9.4-1.14l.182.274.233-.233 5.205-5.204.164-.165-.139-.188C50.49 5.646 41.515.73 31.41.73 21.335.73 12.36 5.615 6.774 13.154l-.139.188.165.164 5.204 5.205.233.232.183-.273c3.47-5.174 9.002-8.852 15.4-9.869a23.632 23.632 0 013.59-.269c1.227 0 2.423.09 3.589.27 6.428 1.016 11.96 4.724 15.43 9.898z" fill="#75BF7A" stroke="#75BF7A" stroke-width=".541"/><path d="M34.778 27.811l4.127-5.253v-4.433H23.556v5.116h8.732l-4.332 5.49 2.08 3.105h1.126c2.251 0 3.24 1.194 3.24 2.66 0 1.467-.989 2.66-3.24 2.66-2.08 0-3.104-.954-3.65-2.523l-4.706 2.728c1.466 3.513 4.74 5.116 8.356 5.116 4.605 0 8.698-2.728 8.698-7.98 0-3.31-2.15-5.663-5.082-6.686z" fill="#75BF7A"/></svg>