<svg width="41" height="41" fill="none" xmlns="http://www.w3.org/2000/svg"><path d="M20.5 37.583c-9.435 0-17.083-7.648-17.083-17.083 0-9.435 7.648-17.084 17.083-17.084 9.436 0 17.084 7.649 17.084 17.084-.01 9.43-7.654 17.073-17.084 17.083zm-7.3-12.322c-.22 0-.438.027-.654.079l-.256.07-1.015 1.737a1.406 1.406 0 002.332 1.565l.106-.16 1.35-2.341a2.368 2.368 0 00-1.88-.95h.018zm9.37-10.467c-.532.5-.885 1.16-1.004 1.88a4.1 4.1 0 00.513 2.884l5.193 8.997a1.412 1.412 0 001.83.55 1.406 1.406 0 00.683-1.784l-.084-.17-1.366-2.377h2.033a1.406 1.406 0 00.17-2.8l-.17-.01h-3.656l-3.748-6.492-.391-.683-.004.005zm-11.876 7.158a1.396 1.396 0 00-1.392 1.402c0 .708.526 1.306 1.229 1.396l.17.009H23.48a1.982 1.982 0 00-.03-1.823 1.767 1.767 0 00-1.354-.976l-.207-.01h-4.358l6.027-10.436a1.407 1.407 0 00-2.332-1.563l-.105.157-.62 1.083-.614-1.083a1.413 1.413 0 00-1.831-.55 1.41 1.41 0 00-.684 1.785l.084.171 1.418 2.494-4.587 7.944h-3.593z" fill="#fff"/></svg>