<svg width="181" height="52" fill="none" xmlns="http://www.w3.org/2000/svg"><path d="M75.88 20.047h-5.938V50h-6.787V20.047h-4.894v-6.2h4.894V1.71h6.787v12.138h5.938v6.2zm39.699 11.42a29.47 29.47 0 01-.196 3.393H85.43c.696 2.872 2.11 5.243 4.242 7.113 2.175 1.828 4.72 2.741 7.635 2.741 2.132 0 4.133-.544 6.004-1.631 1.914-1.088 3.35-2.567 4.307-4.438h6.786c-1.392 3.698-3.654 6.678-6.786 8.94-3.133 2.22-6.657 3.329-10.572 3.329-5.09 0-9.44-1.893-13.051-5.678-3.568-3.785-5.351-8.244-5.351-13.377 0-5.265 1.783-9.746 5.35-13.443 3.568-3.698 7.962-5.547 13.183-5.547 5.09 0 9.418 1.827 12.986 5.481 3.611 3.655 5.416 8.027 5.416 13.117zm-6.787-1.827c-.174-2.959-1.435-5.46-3.785-7.505-2.305-2.044-4.937-3.067-7.896-3.067-2.958 0-5.612 1.023-7.961 3.067-2.306 2.045-3.546 4.546-3.72 7.505h23.362zm29.209-9.789c-1.696 0-3.328.435-4.894 1.305-2.654 1.35-3.981 4.373-3.981 9.071V50h-6.786V13.848h6.33v3.262h.13c1.914-2.697 4.981-4.11 9.201-4.241v6.982zm39.84 11.616c0 1.131-.066 2.262-.196 3.393h-29.953c.696 2.872 2.11 5.243 4.242 7.113 2.175 1.828 4.72 2.741 7.635 2.741 2.132 0 4.133-.544 6.003-1.631 1.915-1.088 3.35-2.567 4.307-4.438h6.787c-1.392 3.698-3.654 6.678-6.787 8.94-3.132 2.22-6.656 3.329-10.571 3.329-5.09 0-9.441-1.893-13.052-5.678-3.567-3.785-5.351-8.244-5.351-13.377 0-5.265 1.784-9.746 5.351-13.443 3.568-3.698 7.962-5.547 13.182-5.547 5.09 0 9.419 1.827 12.986 5.481 3.611 3.655 5.417 8.027 5.417 13.117zm-6.787-1.827c-.174-2.959-1.436-5.46-3.785-7.505-2.306-2.044-4.938-3.067-7.896-3.067s-5.612 1.023-7.961 3.067c-2.306 2.045-3.546 4.546-3.72 7.505h23.362z" fill="#75BF7A"/><path d="M49.14 16.416l-.127-.309-.235.236-4.68 4.705-.089.09.032.122a18.15 18.15 0 01.587 4.623c0 10.327-8.393 18.72-18.72 18.72-10.351 0-18.745-8.393-18.745-18.72 0-1.616.196-3.181.587-4.672l.033-.123-.09-.09-4.68-4.704-.235-.237-.126.31A25.152 25.152 0 00.78 25.883c0 13.84 11.265 25.105 25.104 25.105 13.84 0 25.105-11.266 25.105-25.105 0-3.346-.65-6.544-1.849-9.467zm-7.693-.932l.15.223.19-.19 4.259-4.259.135-.134-.114-.154C41.497 4.801 34.152.78 25.883.78 17.64.78 10.296 4.777 5.725 10.946l-.114.154.135.135 4.259 4.258.19.19.15-.223a18.736 18.736 0 0112.601-8.075c.954-.147 1.933-.22 2.937-.22 1.005 0 1.984.073 2.938.22 5.26.832 9.787 3.866 12.626 8.1z" fill="#75BF7A" stroke="#75BF7A" stroke-width=".442"/><path d="M28.862 26.694h.222V3.201h-6.386v23.493h6.163z" fill="#75BF7A" stroke="#75BF7A" stroke-width=".442"/></svg>